name rise44.8762peak52.3436fall86.788.mot
datacolumns 19
datarows 30
range 23.94823800000000 23.99657100000000
endheader
time	ground_force1_vx	ground_force1_vy	ground_force1_vz	ground_force1_px	ground_force1_py	ground_force1_pz	ground_force2_vx	ground_force2_vy	ground_force2_vz	ground_force2_px	ground_force2_py	ground_force2_pz	ground_torque1_x	ground_torque1_y	ground_torque1_z	ground_torque2_x	ground_torque2_y	ground_torque2_z	
23.94823800000000	-1.67378700000000	690.29564600000003	46.86720200000000	0.17989100000000	0.00000000000000	0.11704000000000	0.00000000000000	0.00000000000000	0.00000000000000	0.00000000000000	0.00000000000000	0.00000000000000	0.00000000000000	16.72359300000000	0.00000000000000	0.00000000000000	0.00000000000000	0.00000000000000	
23.94990500000000	-2.09774300000000	691.68706199999997	46.96814900000000	0.17919100000000	0.00000000000000	0.11700800000000	0.00000000000000	0.00000000000000	0.00000000000000	0.00000000000000	0.00000000000000	0.00000000000000	0.00000000000000	16.79954200000000	0.00000000000000	0.00000000000000	0.00000000000000	0.00000000000000	
23.95157300000000	-2.53373100000000	693.14460899999995	47.07607000000000	0.17846400000000	0.00000000000000	0.11697700000000	0.00000000000000	0.00000000000000	0.00000000000000	0.00000000000000	0.00000000000000	0.00000000000000	0.00000000000000	16.87967300000000	0.00000000000000	0.00000000000000	0.00000000000000	0.00000000000000	
23.95324300000000	-2.98193700000000	694.66523199999995	47.19047700000000	0.17770800000000	0.00000000000000	0.11694800000000	0.00000000000000	0.00000000000000	0.00000000000000	0.00000000000000	0.00000000000000	0.00000000000000	0.00000000000000	16.96376800000000	0.00000000000000	0.00000000000000	0.00000000000000	0.00000000000000	
23.95490700000000	-3.44248300000000	696.24584800000002	47.31088200000000	0.17692300000000	0.00000000000000	0.11692100000000	0.00000000000000	0.00000000000000	0.00000000000000	0.00000000000000	0.00000000000000	0.00000000000000	0.00000000000000	17.05161000000000	0.00000000000000	0.00000000000000	0.00000000000000	0.00000000000000	
23.95657700000000	-3.91542500000000	697.88336000000004	47.43680400000000	0.17610900000000	0.00000000000000	0.11689500000000	0.00000000000000	0.00000000000000	0.00000000000000	0.00000000000000	0.00000000000000	0.00000000000000	0.00000000000000	17.14298300000000	0.00000000000000	0.00000000000000	0.00000000000000	0.00000000000000	
23.95824100000000	-4.40075100000000	699.57465900000000	47.56776400000000	0.17526500000000	0.00000000000000	0.11687100000000	0.00000000000000	0.00000000000000	0.00000000000000	0.00000000000000	0.00000000000000	0.00000000000000	0.00000000000000	17.23767300000000	0.00000000000000	0.00000000000000	0.00000000000000	0.00000000000000	
23.95990800000000	-4.89838200000000	701.31663400000002	47.70329200000000	0.17439300000000	0.00000000000000	0.11684800000000	0.00000000000000	0.00000000000000	0.00000000000000	0.00000000000000	0.00000000000000	0.00000000000000	0.00000000000000	17.33546600000000	0.00000000000000	0.00000000000000	0.00000000000000	0.00000000000000	
23.96157200000000	-5.40817300000000	703.10618099999999	47.84292600000000	0.17349100000000	0.00000000000000	0.11682600000000	0.00000000000000	0.00000000000000	0.00000000000000	0.00000000000000	0.00000000000000	0.00000000000000	0.00000000000000	17.43615100000000	0.00000000000000	0.00000000000000	0.00000000000000	0.00000000000000	
23.96324100000000	-5.92991300000000	704.94020499999999	47.98621100000000	0.17256200000000	0.00000000000000	0.11680600000000	0.00000000000000	0.00000000000000	0.00000000000000	0.00000000000000	0.00000000000000	0.00000000000000	0.00000000000000	17.53952100000000	0.00000000000000	0.00000000000000	0.00000000000000	0.00000000000000	
23.96490400000000	-6.46332400000000	706.81562899999994	48.13270700000000	0.17160600000000	0.00000000000000	0.11678700000000	0.00000000000000	0.00000000000000	0.00000000000000	0.00000000000000	0.00000000000000	0.00000000000000	0.00000000000000	17.64536900000000	0.00000000000000	0.00000000000000	0.00000000000000	0.00000000000000	
23.96657700000000	-7.00806700000000	708.72940300000005	48.28198500000000	0.17062400000000	0.00000000000000	0.11676900000000	0.00000000000000	0.00000000000000	0.00000000000000	0.00000000000000	0.00000000000000	0.00000000000000	0.00000000000000	17.75349100000000	0.00000000000000	0.00000000000000	0.00000000000000	0.00000000000000	
23.96823700000000	-7.56373800000000	710.67850399999998	48.43362900000000	0.16961700000000	0.00000000000000	0.11675200000000	0.00000000000000	0.00000000000000	0.00000000000000	0.00000000000000	0.00000000000000	0.00000000000000	0.00000000000000	17.86368600000000	0.00000000000000	0.00000000000000	0.00000000000000	0.00000000000000	
23.96990600000000	-8.12987400000000	712.65994599999999	48.58723900000000	0.16858800000000	0.00000000000000	0.11673500000000	0.00000000000000	0.00000000000000	0.00000000000000	0.00000000000000	0.00000000000000	0.00000000000000	0.00000000000000	17.97575800000000	0.00000000000000	0.00000000000000	0.00000000000000	0.00000000000000	
23.97157700000000	-8.70595300000000	714.67078300000003	48.74243300000000	0.16753700000000	0.00000000000000	0.11672000000000	0.00000000000000	0.00000000000000	0.00000000000000	0.00000000000000	0.00000000000000	0.00000000000000	0.00000000000000	18.08951100000000	0.00000000000000	0.00000000000000	0.00000000000000	0.00000000000000	
23.97324000000000	-9.29139700000000	716.70811300000003	48.89884400000000	0.16646700000000	0.00000000000000	0.11670400000000	0.00000000000000	0.00000000000000	0.00000000000000	0.00000000000000	0.00000000000000	0.00000000000000	0.00000000000000	18.20475300000000	0.00000000000000	0.00000000000000	0.00000000000000	0.00000000000000	
23.97490600000000	-9.88557800000000	718.76908500000002	49.05612700000000	0.16537900000000	0.00000000000000	0.11668900000000	0.00000000000000	0.00000000000000	0.00000000000000	0.00000000000000	0.00000000000000	0.00000000000000	0.00000000000000	18.32129500000000	0.00000000000000	0.00000000000000	0.00000000000000	0.00000000000000	
23.97657200000000	-10.48781400000000	720.85090000000002	49.21395500000000	0.16427700000000	0.00000000000000	0.11667500000000	0.00000000000000	0.00000000000000	0.00000000000000	0.00000000000000	0.00000000000000	0.00000000000000	0.00000000000000	18.43895100000000	0.00000000000000	0.00000000000000	0.00000000000000	0.00000000000000	
23.97824300000000	-11.09737900000000	722.95081400000004	49.37202200000000	0.16316100000000	0.00000000000000	0.11666000000000	0.00000000000000	0.00000000000000	0.00000000000000	0.00000000000000	0.00000000000000	0.00000000000000	0.00000000000000	18.55753800000000	0.00000000000000	0.00000000000000	0.00000000000000	0.00000000000000	
23.97991100000000	-11.71350300000000	725.06614400000001	49.53004600000000	0.16203400000000	0.00000000000000	0.11664500000000	0.00000000000000	0.00000000000000	0.00000000000000	0.00000000000000	0.00000000000000	0.00000000000000	0.00000000000000	18.67687400000000	0.00000000000000	0.00000000000000	0.00000000000000	0.00000000000000	
23.98157000000000	-12.33537800000000	727.19426899999996	49.68776500000000	0.16089900000000	0.00000000000000	0.11662900000000	0.00000000000000	0.00000000000000	0.00000000000000	0.00000000000000	0.00000000000000	0.00000000000000	0.00000000000000	18.79678400000000	0.00000000000000	0.00000000000000	0.00000000000000	0.00000000000000	
23.98323900000000	-12.96215700000000	729.33263199999999	49.84494400000000	0.15975700000000	0.00000000000000	0.11661400000000	0.00000000000000	0.00000000000000	0.00000000000000	0.00000000000000	0.00000000000000	0.00000000000000	0.00000000000000	18.91709000000000	0.00000000000000	0.00000000000000	0.00000000000000	0.00000000000000	
23.98490600000000	-13.59296600000000	731.47874000000002	50.00136900000000	0.15861200000000	0.00000000000000	0.11659700000000	0.00000000000000	0.00000000000000	0.00000000000000	0.00000000000000	0.00000000000000	0.00000000000000	0.00000000000000	19.03762200000000	0.00000000000000	0.00000000000000	0.00000000000000	0.00000000000000	
23.98657000000000	-14.22690100000000	733.63017200000002	50.15685400000000	0.15746500000000	0.00000000000000	0.11658000000000	0.00000000000000	0.00000000000000	0.00000000000000	0.00000000000000	0.00000000000000	0.00000000000000	0.00000000000000	19.15820800000000	0.00000000000000	0.00000000000000	0.00000000000000	0.00000000000000	
23.98824400000000	-14.86303600000000	735.78457200000003	50.31123400000000	0.15631900000000	0.00000000000000	0.11656300000000	0.00000000000000	0.00000000000000	0.00000000000000	0.00000000000000	0.00000000000000	0.00000000000000	0.00000000000000	19.27868200000000	0.00000000000000	0.00000000000000	0.00000000000000	0.00000000000000	
23.98990900000000	-15.50042700000000	737.93965500000002	50.46437500000000	0.15517700000000	0.00000000000000	0.11654400000000	0.00000000000000	0.00000000000000	0.00000000000000	0.00000000000000	0.00000000000000	0.00000000000000	0.00000000000000	19.39887700000000	0.00000000000000	0.00000000000000	0.00000000000000	0.00000000000000	
23.99157700000000	-16.13811500000000	740.09320600000001	50.61616300000000	0.15404000000000	0.00000000000000	0.11652400000000	0.00000000000000	0.00000000000000	0.00000000000000	0.00000000000000	0.00000000000000	0.00000000000000	0.00000000000000	19.51863100000000	0.00000000000000	0.00000000000000	0.00000000000000	0.00000000000000	
23.99324000000000	-16.77513200000000	742.24307999999996	50.76651500000000	0.15291000000000	0.00000000000000	0.11650300000000	0.00000000000000	0.00000000000000	0.00000000000000	0.00000000000000	0.00000000000000	0.00000000000000	0.00000000000000	19.63778300000000	0.00000000000000	0.00000000000000	0.00000000000000	0.00000000000000	
23.99490900000000	-17.41050400000000	744.38720400000000	50.91537000000000	0.15179100000000	0.00000000000000	0.11648000000000	0.00000000000000	0.00000000000000	0.00000000000000	0.00000000000000	0.00000000000000	0.00000000000000	0.00000000000000	19.75617400000000	0.00000000000000	0.00000000000000	0.00000000000000	0.00000000000000	
23.99657100000000	-18.04326000000000	746.52356999999995	51.06269400000000	0.15068300000000	0.00000000000000	0.11645600000000	0.00000000000000	0.00000000000000	0.00000000000000	0.00000000000000	0.00000000000000	0.00000000000000	0.00000000000000	19.87364800000000	0.00000000000000	0.00000000000000	0.00000000000000	0.00000000000000	
